<svg width="512" height="512" viewBox="0 0 512 512" fill="none" xmlns="http://www.w3.org/2000/svg">
<rect width="512" height="512" fill="#2F4877"/>
<path d="M392.398 274.273H360.477V332H341.984V274.273H318.219V255.992H341.984V231.172H360.477V255.992H392.398V274.273Z" fill="white"/>
<path d="M308.094 306.336C308.094 309.477 307.695 312.312 306.898 314.844C306.102 317.328 305.047 319.531 303.734 321.453C302.422 323.328 300.898 324.945 299.164 326.305C297.43 327.617 295.602 328.695 293.68 329.539C291.805 330.383 289.883 331.016 287.914 331.437C285.992 331.812 284.164 332 282.43 332H249.453C246.922 332 244.156 331.555 241.156 330.664C238.156 329.773 235.367 328.32 232.789 326.305C230.258 324.242 228.125 321.594 226.391 318.359C224.703 315.078 223.859 311.07 223.859 306.336V281.586C223.859 276.898 224.703 272.937 226.391 269.703C228.125 266.422 230.258 263.773 232.789 261.758C235.367 259.695 238.156 258.219 241.156 257.328C244.156 256.437 246.922 255.992 249.453 255.992H282.43C287.117 255.992 291.102 256.836 294.383 258.523C297.664 260.211 300.312 262.344 302.328 264.922C304.344 267.453 305.797 270.219 306.688 273.219C307.625 276.219 308.094 279.008 308.094 281.586V306.336ZM289.812 281.727C289.812 279.195 289.18 277.32 287.914 276.102C286.648 274.883 284.82 274.273 282.43 274.273H249.594C247.156 274.273 245.305 274.906 244.039 276.172C242.773 277.391 242.141 279.195 242.141 281.586V306.336C242.141 308.727 242.773 310.555 244.039 311.82C245.305 313.086 247.156 313.719 249.594 313.719H282.43C284.914 313.719 286.766 313.086 287.984 311.82C289.203 310.555 289.812 308.727 289.812 306.336V281.727Z" fill="white"/>
<path d="M207.969 306.336C207.969 309.477 207.57 312.312 206.773 314.844C205.977 317.328 204.922 319.531 203.609 321.453C202.297 323.328 200.773 324.945 199.039 326.305C197.305 327.617 195.477 328.695 193.555 329.539C191.68 330.383 189.758 331.016 187.789 331.437C185.867 331.812 184.039 332 182.305 332H149.328C146.188 332 143.375 331.602 140.891 330.805C138.406 330.008 136.203 328.953 134.281 327.641C132.406 326.281 130.789 324.734 129.43 323C128.117 321.266 127.039 319.461 126.195 317.586C125.352 315.664 124.719 313.742 124.297 311.82C123.922 309.852 123.734 308.023 123.734 306.336V281.586C123.734 276.898 124.578 272.937 126.266 269.703C128 266.422 130.133 263.773 132.664 261.758C135.242 259.695 138.031 258.219 141.031 257.328C144.031 256.437 146.797 255.992 149.328 255.992H182.305V274.273H149.469C147.031 274.273 145.18 274.906 143.914 276.172C142.648 277.391 142.016 279.195 142.016 281.586V306.195C142.016 308.68 142.625 310.555 143.844 311.82C145.109 313.086 146.938 313.719 149.328 313.719H182.305C184.789 313.719 186.641 313.086 187.859 311.82C189.078 310.555 189.688 308.727 189.688 306.336V223.859H207.969V306.336Z" fill="white"/>
<path d="M383.615 158.4L364.415 193.6H363.149L343.815 158.533V200H341.549V153.333H343.482L363.749 190.4L383.949 153.333H385.949L386.015 200H383.682L383.615 158.4Z" fill="white"/>
<path d="M265.428 186.467L259.561 200H256.895L277.361 153.333H279.761L300.295 200H297.628L291.761 186.467H265.428ZM278.628 156.2L266.295 184.333H290.828L278.628 156.2Z" fill="white"/>
<path d="M219.481 200H189.348V153.333H218.615V155.6H191.815V175.133H215.748V177.467H191.815V197.733H219.481V200Z" fill="white"/>
<path d="M115.267 155.6V153.333H150V155.6H133.8V200H131.467V155.6H115.267Z" fill="white"/>
</svg>
