<svg width="120" height="12" viewBox="0 0 120 12" fill="none" xmlns="http://www.w3.org/2000/svg">
<path d="M111.268 0.161133H115.828C116.63 0.161133 117.31 0.284789 117.868 0.532101C118.432 0.774036 118.855 1.11812 119.14 1.56436C119.424 2.00522 119.566 2.52404 119.566 3.12081C119.566 3.55629 119.48 3.94877 119.307 4.29823C119.135 4.64769 118.894 4.93801 118.584 5.1692C118.279 5.40038 117.924 5.55898 117.518 5.645V5.75791C117.965 5.77941 118.378 5.90844 118.759 6.145C119.14 6.38156 119.442 6.70952 119.665 7.12887C119.888 7.54823 120 8.0321 120 8.58049C120 9.20952 119.848 9.76866 119.543 10.2579C119.244 10.7472 118.805 11.1343 118.226 11.4192C117.653 11.6988 116.967 11.8386 116.171 11.8386H111.268V0.161133ZM115.554 9.61275C115.945 9.61275 116.267 9.55898 116.521 9.45146C116.78 9.33855 116.97 9.18264 117.092 8.98371C117.219 8.78479 117.282 8.54554 117.282 8.26597C117.282 7.9649 117.214 7.70146 117.077 7.47565C116.945 7.24447 116.752 7.06973 116.498 6.95146C116.249 6.8278 115.952 6.76597 115.607 6.76597H113.856V9.61275H115.554ZM115.386 4.98371C115.686 4.98371 115.952 4.92995 116.186 4.82242C116.419 4.70952 116.599 4.55361 116.726 4.35468C116.858 4.15576 116.924 3.91651 116.924 3.63694C116.924 3.3735 116.863 3.145 116.742 2.95146C116.625 2.75791 116.455 2.61006 116.231 2.50791C116.008 2.40576 115.742 2.35468 115.432 2.35468H113.856V4.98371H115.386Z" fill="#336690"/>
<path d="M102.759 0.161133H110.395V2.40307H105.348V4.87887H109.999V7.11275H105.348V9.59662H110.395V11.8386H102.759V0.161133Z" fill="#336690"/>
<path d="M86.9422 0.161133H89.7971L91.4948 7.895H91.5938L93.5047 0.161133H95.8724L97.7909 7.9192H97.8823L99.5876 0.161133H102.443L99.2526 11.8386H96.7327L94.7304 4.645H94.6543L92.6444 11.8386H90.1397L86.9422 0.161133Z" fill="#336690"/>
<path d="M76.2899 0.161133H83.9258V2.40307H78.8783V4.87887H83.53V7.11275H78.8783V9.59662H83.9258V11.8386H76.2899V0.161133Z" fill="#336690"/>
<path d="M73.0878 3.62903C73.0624 3.34409 72.9812 3.09946 72.8441 2.89516C72.7071 2.69086 72.5142 2.53763 72.2655 2.43548C72.0168 2.32796 71.7149 2.27419 71.3596 2.27419C71.0195 2.27419 70.7302 2.32258 70.4917 2.41935C70.2531 2.51613 70.073 2.65054 69.9511 2.82258C69.8293 2.99462 69.7684 3.19355 69.7684 3.41935C69.7583 3.75806 69.8928 4.02957 70.1719 4.23387C70.4511 4.4328 70.8622 4.59946 71.4053 4.73387L72.3645 4.95968C73.471 5.21774 74.3059 5.63441 74.8692 6.20968C75.4326 6.77957 75.7194 7.52688 75.7295 8.45161C75.7295 9.1828 75.5544 9.81452 75.2042 10.3468C74.854 10.8737 74.3541 11.2796 73.7044 11.5645C73.0548 11.8441 72.2757 11.9839 71.3672 11.9839C70.4384 11.9839 69.6339 11.836 68.9538 11.5403C68.2737 11.2446 67.7484 10.8011 67.3779 10.2097C67.0074 9.6129 66.812 8.87366 66.7917 7.99194H69.2888C69.3142 8.3629 69.4131 8.67742 69.5857 8.93548C69.7583 9.18817 69.9943 9.37903 70.2937 9.50806C70.5932 9.6371 70.9383 9.70161 71.3291 9.70161C71.6946 9.70161 72.0092 9.64785 72.2732 9.54032C72.5371 9.4328 72.7376 9.28495 72.8746 9.09677C73.0167 8.9086 73.0878 8.69086 73.0878 8.44355C73.0878 8.22312 73.0243 8.03226 72.8974 7.87097C72.7705 7.70968 72.5777 7.56989 72.3188 7.45161C72.06 7.33333 71.7199 7.22312 71.2987 7.12097L70.1415 6.83065C69.1518 6.59409 68.3955 6.21237 67.8728 5.68548C67.35 5.1586 67.0886 4.46505 67.0886 3.60484C67.0886 2.89516 67.2713 2.26882 67.6367 1.72581C68.0022 1.1828 68.5097 0.760753 69.1594 0.459677C69.809 0.153226 70.5475 0 71.3748 0C72.2123 0 72.9457 0.150538 73.575 0.451613C74.2094 0.752688 74.6992 1.17742 75.0443 1.72581C75.3945 2.27419 75.5722 2.9086 75.5773 3.62903H73.0878Z" fill="#336690"/>
<path d="M66.2314 11.8386H63.6429V0.161133H66.2314V11.8386Z" fill="#336690"/>
<path d="M47.8258 0.161133H50.6807L52.3785 7.895H52.4774L54.3883 0.161133H56.756L58.6745 7.9192H58.7659L60.4712 0.161133H63.3262L60.1363 11.8386H57.6163L55.6141 4.645H55.5379L53.5281 11.8386H51.0233L47.8258 0.161133Z" fill="#336690"/>
<path d="M36.5568 11.8386V9.49178H39.3889C40.0436 9.49178 40.5842 9.3735 41.0105 9.13694C41.4419 8.90038 41.7668 8.52404 41.985 8.00791C42.2083 7.49178 42.32 6.82242 42.32 5.99984C42.32 5.16651 42.2083 4.49178 41.985 3.97565C41.7668 3.45952 41.4394 3.08586 41.0029 2.85468C40.5715 2.6235 40.0259 2.50791 39.3661 2.50791H36.5111V0.161133H39.4879C40.6096 0.161133 41.5764 0.395004 42.3885 0.862746C43.2056 1.33049 43.8325 2.00253 44.2689 2.87887C44.7054 3.75522 44.9237 4.79554 44.9237 5.99984C44.9237 7.20414 44.7054 8.24447 44.2689 9.12081C43.8325 9.99715 43.2056 10.6692 42.3885 11.1369C41.5713 11.6047 40.6045 11.8386 39.4879 11.8386H36.5568ZM38.0414 11.8386H35.4529V0.161133H38.0414V11.8386Z" fill="#336690"/>
<path d="M26.2593 0.161133H30.7663C31.5936 0.161133 32.3067 0.319735 32.9056 0.636939C33.5095 0.948767 33.9714 1.39769 34.2912 1.98371C34.616 2.56436 34.7784 3.24984 34.7784 4.04016C34.7784 4.82511 34.6134 5.50253 34.2835 6.07242C33.9587 6.64232 33.4867 7.07511 32.8675 7.37081C32.2534 7.66651 31.5276 7.81436 30.6901 7.81436H27.7971V5.62887H30.2257C30.6419 5.62887 30.9845 5.57242 31.2535 5.45952C31.5276 5.34124 31.7357 5.16651 31.8778 4.93533C32.0199 4.69877 32.091 4.40038 32.091 4.04016C32.091 3.6692 32.0199 3.36275 31.8778 3.12081C31.7357 2.87887 31.525 2.69608 31.2459 2.57242C30.9718 2.44877 30.6292 2.38694 30.2181 2.38694H28.8477V11.8386H26.2593V0.161133ZM35.1591 11.8386H32.3041L29.6319 6.50791H32.4107L35.1591 11.8386Z" fill="#336690"/>
<path d="M25.5086 6C25.5086 7.24731 25.2802 8.32258 24.8234 9.22581C24.3667 10.129 23.7424 10.8172 22.9506 11.2903C22.1588 11.7634 21.263 12 20.2632 12C19.2684 12 18.3726 11.7634 17.5757 11.2903C16.784 10.8172 16.1597 10.1263 15.7029 9.21774C15.2512 8.30914 15.0253 7.23656 15.0253 6C15.0253 4.74194 15.2512 3.66129 15.7029 2.75806C16.1597 1.85484 16.784 1.16935 17.5757 0.701613C18.3726 0.233871 19.2684 0 20.2632 0C21.263 0 22.1588 0.233871 22.9506 0.701613C23.7424 1.16935 24.3667 1.85484 24.8234 2.75806C25.2802 3.66129 25.5086 4.74194 25.5086 6ZM22.8592 6C22.8592 5.23118 22.7552 4.58065 22.5471 4.04839C22.3441 3.51075 22.0472 3.10484 21.6564 2.83065C21.2706 2.55108 20.8062 2.41129 20.2632 2.41129C19.7252 2.41129 19.2608 2.55108 18.87 2.83065C18.4842 3.10484 18.1873 3.51075 17.9792 4.04839C17.7762 4.58065 17.6747 5.23118 17.6747 6C17.6747 6.76882 17.7762 7.42204 17.9792 7.95968C18.1873 8.49193 18.4842 8.89785 18.87 9.17742C19.2608 9.45161 19.7252 9.58871 20.2632 9.58871C20.8062 9.58871 21.2706 9.45161 21.6564 9.17742C22.0472 8.89785 22.3441 8.49193 22.5471 7.95968C22.7552 7.42204 22.8592 6.76882 22.8592 6Z" fill="#336690"/>
<path d="M0 0.161133H2.85493L4.55266 7.895H4.65163L6.56254 0.161133H8.93023L10.8487 7.9192H10.9401L12.6454 0.161133H15.5004L12.3105 11.8386H9.79051L7.78825 4.645H7.71212L5.70225 11.8386H3.19752L0 0.161133Z" fill="#336690"/>
</svg>
